<svg width="1280" height="360" viewBox="0 0 1280 360" fill="none" xmlns="http://www.w3.org/2000/svg">
  <defs>
    <linearGradient id="bg" x1="0" y1="0" x2="1280" y2="360" gradientUnits="userSpaceOnUse">
      <stop stop-color="#0F172A"/>
      <stop offset="1" stop-color="#1D4ED8"/>
    </linearGradient>
    <linearGradient id="card" x1="0" y1="0" x2="1" y2="1">
      <stop stop-color="#FFFFFF" stop-opacity="0.18"/>
      <stop offset="1" stop-color="#FFFFFF" stop-opacity="0.08"/>
    </linearGradient>
  </defs>
  <rect width="1280" height="360" rx="24" fill="url(#bg)"/>
  <circle cx="1120" cy="78" r="160" fill="#60A5FA" fill-opacity="0.12"/>
  <circle cx="104" cy="318" r="140" fill="#22C55E" fill-opacity="0.12"/>
  <rect x="56" y="52" width="1168" height="256" rx="28" fill="url(#card)" stroke="rgba(255,255,255,0.18)"/>
  <text x="92" y="128" fill="#F8FAFC" font-family="Segoe UI, Arial, sans-serif" font-size="46" font-weight="700">Hot Swapper</text>
  <text x="92" y="172" fill="#BFDBFE" font-family="Segoe UI, Arial, sans-serif" font-size="22">Sticky failover for OpenRouter, Hermes-style agents, and unstable model pools</text>
  <g transform="translate(90 218)">
    <rect x="0" y="0" width="214" height="54" rx="16" fill="#0B1220" fill-opacity="0.5" stroke="#60A5FA"/>
    <text x="24" y="33" fill="#E2E8F0" font-family="Segoe UI, Arial, sans-serif" font-size="20" font-weight="600">Model A fails</text>
    <path d="M234 27H314" stroke="#93C5FD" stroke-width="4" stroke-linecap="round"/>
    <path d="M304 17L324 27L304 37" fill="none" stroke="#93C5FD" stroke-width="4" stroke-linecap="round" stroke-linejoin="round"/>
    <rect x="344" y="0" width="232" height="54" rx="16" fill="#0B1220" fill-opacity="0.5" stroke="#34D399"/>
    <text x="368" y="33" fill="#E2E8F0" font-family="Segoe UI, Arial, sans-serif" font-size="20" font-weight="600">Model B succeeds</text>
    <path d="M596 27H676" stroke="#86EFAC" stroke-width="4" stroke-linecap="round"/>
    <path d="M666 17L686 27L666 37" fill="none" stroke="#86EFAC" stroke-width="4" stroke-linecap="round" stroke-linejoin="round"/>
    <rect x="706" y="0" width="330" height="54" rx="16" fill="#0B1220" fill-opacity="0.5" stroke="#FBBF24"/>
    <text x="730" y="33" fill="#FEF3C7" font-family="Segoe UI, Arial, sans-serif" font-size="20" font-weight="600">Model B becomes default</text>
  </g>
</svg>
